<svg width="124" height="124" viewBox="0 0 124 124" fill="none" xmlns="http://www.w3.org/2000/svg">
<rect width="124" height="124" rx="62" fill="#4B5A23"/>
<path d="M13.1913 64.9789C16.2062 64.0944 20.3952 63.3692 23.895 63.5657C28.0134 63.7991 31.1621 64.6471 35.1891 65.2368C36.8272 65.4826 44.8734 67.3251 47.818 67.6936C52.7445 68.492 61.1075 69.7325 66.041 70.5187L79.591 72.7535C79.5418 72.8027 79.6891 72.7174 79.4571 72.8771C79.2242 73.0366 77.5734 72.9998 76.9411 72.9875C69.2809 72.9875 62.8153 72.9133 55.2254 71.9306C46.5951 70.5671 37.6905 68.6756 29.0603 67.3121C25.5042 66.6856 21.4493 66.1704 18.1252 65.851C16.6845 65.7159 15.0256 65.6297 12.601 65.9613C9.9728 66.3176 9.83216 66.4527 7 66.8335C8.60927 66.3421 11.5677 65.3966 13.1913 64.9789ZM25.49 57.7428C31.6254 57.9516 68.8738 65.2603 81.8332 67.582C94.6652 69.8738 116.9 63.741 117 63.7133C116.937 63.744 108.181 68.0053 98.7769 69.5842C81.6922 72.4463 45.6677 64.8065 35.5755 62.0794C25.2165 59.2787 24.8578 59.6465 18.5891 59.9045C12.6522 60.1495 8.48372 61.2256 8.46185 61.2313L8.93541 61.0729C11.1062 60.3679 20.1218 57.5602 25.49 57.7428ZM33.6922 54.5242C37.0303 54.4014 40.0312 54.4878 43.4537 54.9177C56.505 56.5599 68.7979 61.3374 81.7124 63.5441L82.9711 63.7505C92.5993 65.2614 102.256 64.5724 111.744 63.2826C87.8347 71.4638 71.2067 63.0619 48.4363 57.5341C44.065 56.4654 39.6726 55.495 35.1396 55.1756C33.9309 55.0896 32.3284 55.1629 30.7822 55.0401C30.1498 54.991 29.6157 55.0162 28.8077 54.8565C28.8441 54.8562 29.2898 54.7707 29.3272 54.7702C31.2177 54.5613 32.2093 54.5734 33.6922 54.5242ZM44.2896 51.7363C55.1688 49.1936 66.3085 53.7628 76.1546 57.4357C78.1081 58.1727 79.5488 58.5901 81.5024 59.1919C82.922 59.6342 84.5808 60.1756 86.0918 60.4827C88.0665 60.8881 90.0343 61.2808 92.1005 61.3668C93.3795 61.416 95.0804 61.4532 96.985 61.4532C99.2831 61.4532 101.602 61.2317 102.6 61.3668C102.572 61.5142 102.003 61.7482 101.04 61.9079C100.914 61.9707 97.4538 62.7677 95.7407 62.9395C93.1828 63.1974 91.6859 63.0006 89.9221 62.9023C78.4105 62.239 76.6533 60.7282 70.279 58.7505C66.9831 57.4853 63.6941 56.2201 60.3981 54.9549C57.1961 53.7572 52.9004 52.808 49.5269 52.3398L48.8653 52.2402C48.1065 52.1419 43.8774 51.8347 44.2896 51.7363Z" fill="#F4F6EA"/>
</svg>
